<svg xmlns="http://www.w3.org/2000/svg" viewBox="0 0 1600 900" preserveAspectRatio="xMidYMax slice">
<defs>
  <linearGradient id="wall" x1="0" y1="0" x2="0" y2="1"><stop offset="0" stop-color="#150d08"/><stop offset=".7" stop-color="#2a1a10"/><stop offset="1" stop-color="#34200f"/></linearGradient>
  <linearGradient id="night" x1="0" y1="0" x2="0" y2="1"><stop offset="0" stop-color="#141b33"/><stop offset=".6" stop-color="#2b2a55"/><stop offset="1" stop-color="#5a3a58"/></linearGradient>
  <radialGradient id="glow"><stop offset="0" stop-color="#ffb24d" stop-opacity=".42"/><stop offset="1" stop-color="#ffb24d" stop-opacity="0"/></radialGradient>
  <radialGradient id="paper" cx=".5" cy=".5" r=".6"><stop offset="0" stop-color="#ffe3a8"/><stop offset=".6" stop-color="#f08a3c"/><stop offset="1" stop-color="#b8321f"/></radialGradient>
  <radialGradient id="vig" cx=".5" cy=".45" r=".75"><stop offset=".5" stop-color="#000" stop-opacity="0"/><stop offset="1" stop-color="#000" stop-opacity=".62"/></radialGradient>
  <linearGradient id="counter" x1="0" y1="0" x2="0" y2="1"><stop offset="0" stop-color="#6b4527"/><stop offset=".08" stop-color="#4a2e19"/><stop offset="1" stop-color="#20120a"/></linearGradient>
  <clipPath id="win"><rect x="1010" y="150" width="460" height="400"/></clipPath>
  <style>
    .sway{animation:sway 5.5s ease-in-out infinite}
    @keyframes sway{0%,100%{transform:rotate(-2.2deg)}50%{transform:rotate(2.2deg)}}
    .rain{stroke:#bcd4ff;stroke-width:1.4;opacity:.55;animation:fall .9s linear infinite;transform:translate(0,150px)}
    @keyframes fall{from{transform:translate(0,130px)}to{transform:translate(-14px,560px)}}
    .steam{fill:none;stroke:#fff;stroke-width:3;stroke-linecap:round;opacity:0;animation:rise 4s ease-out infinite}
    @keyframes rise{0%{opacity:0;transform:translateY(0)}25%{opacity:.5}100%{opacity:0;transform:translateY(-46px)}}
    .flame{animation:flick .35s ease-in-out infinite alternate;transform-origin:1228px 640px}
    @keyframes flick{from{transform:scale(1,1)}to{transform:scale(.88,1.12)}}
    .blink{animation:blink 3.2s steps(1) infinite}
    @keyframes blink{0%,92%,100%{opacity:1}94%{opacity:.35}96%{opacity:1}98%{opacity:.5}}
  </style>
</defs>

<rect width="1600" height="900" fill="url(#wall)"/>
<rect x="0" y="0" width="2" height="700" fill="#000" opacity=".22"/><rect x="2" y="0" width="1" height="700" fill="#f2b45a" opacity=".05"/><rect x="44" y="0" width="2" height="700" fill="#000" opacity=".22"/><rect x="46" y="0" width="1" height="700" fill="#f2b45a" opacity=".05"/><rect x="88" y="0" width="2" height="700" fill="#000" opacity=".22"/><rect x="90" y="0" width="1" height="700" fill="#f2b45a" opacity=".05"/><rect x="132" y="0" width="2" height="700" fill="#000" opacity=".22"/><rect x="134" y="0" width="1" height="700" fill="#f2b45a" opacity=".05"/><rect x="176" y="0" width="2" height="700" fill="#000" opacity=".22"/><rect x="178" y="0" width="1" height="700" fill="#f2b45a" opacity=".05"/><rect x="220" y="0" width="2" height="700" fill="#000" opacity=".22"/><rect x="222" y="0" width="1" height="700" fill="#f2b45a" opacity=".05"/><rect x="264" y="0" width="2" height="700" fill="#000" opacity=".22"/><rect x="266" y="0" width="1" height="700" fill="#f2b45a" opacity=".05"/><rect x="308" y="0" width="2" height="700" fill="#000" opacity=".22"/><rect x="310" y="0" width="1" height="700" fill="#f2b45a" opacity=".05"/><rect x="352" y="0" width="2" height="700" fill="#000" opacity=".22"/><rect x="354" y="0" width="1" height="700" fill="#f2b45a" opacity=".05"/><rect x="396" y="0" width="2" height="700" fill="#000" opacity=".22"/><rect x="398" y="0" width="1" height="700" fill="#f2b45a" opacity=".05"/><rect x="440" y="0" width="2" height="700" fill="#000" opacity=".22"/><rect x="442" y="0" width="1" height="700" fill="#f2b45a" opacity=".05"/><rect x="484" y="0" width="2" height="700" fill="#000" opacity=".22"/><rect x="486" y="0" width="1" height="700" fill="#f2b45a" opacity=".05"/><rect x="528" y="0" width="2" height="700" fill="#000" opacity=".22"/><rect x="530" y="0" width="1" height="700" fill="#f2b45a" opacity=".05"/><rect x="572" y="0" width="2" height="700" fill="#000" opacity=".22"/><rect x="574" y="0" width="1" height="700" fill="#f2b45a" opacity=".05"/><rect x="616" y="0" width="2" height="700" fill="#000" opacity=".22"/><rect x="618" y="0" width="1" height="700" fill="#f2b45a" opacity=".05"/><rect x="660" y="0" width="2" height="700" fill="#000" opacity=".22"/><rect x="662" y="0" width="1" height="700" fill="#f2b45a" opacity=".05"/><rect x="704" y="0" width="2" height="700" fill="#000" opacity=".22"/><rect x="706" y="0" width="1" height="700" fill="#f2b45a" opacity=".05"/><rect x="748" y="0" width="2" height="700" fill="#000" opacity=".22"/><rect x="750" y="0" width="1" height="700" fill="#f2b45a" opacity=".05"/><rect x="792" y="0" width="2" height="700" fill="#000" opacity=".22"/><rect x="794" y="0" width="1" height="700" fill="#f2b45a" opacity=".05"/><rect x="836" y="0" width="2" height="700" fill="#000" opacity=".22"/><rect x="838" y="0" width="1" height="700" fill="#f2b45a" opacity=".05"/><rect x="880" y="0" width="2" height="700" fill="#000" opacity=".22"/><rect x="882" y="0" width="1" height="700" fill="#f2b45a" opacity=".05"/><rect x="924" y="0" width="2" height="700" fill="#000" opacity=".22"/><rect x="926" y="0" width="1" height="700" fill="#f2b45a" opacity=".05"/><rect x="968" y="0" width="2" height="700" fill="#000" opacity=".22"/><rect x="970" y="0" width="1" height="700" fill="#f2b45a" opacity=".05"/><rect x="1012" y="0" width="2" height="700" fill="#000" opacity=".22"/><rect x="1014" y="0" width="1" height="700" fill="#f2b45a" opacity=".05"/><rect x="1056" y="0" width="2" height="700" fill="#000" opacity=".22"/><rect x="1058" y="0" width="1" height="700" fill="#f2b45a" opacity=".05"/><rect x="1100" y="0" width="2" height="700" fill="#000" opacity=".22"/><rect x="1102" y="0" width="1" height="700" fill="#f2b45a" opacity=".05"/><rect x="1144" y="0" width="2" height="700" fill="#000" opacity=".22"/><rect x="1146" y="0" width="1" height="700" fill="#f2b45a" opacity=".05"/><rect x="1188" y="0" width="2" height="700" fill="#000" opacity=".22"/><rect x="1190" y="0" width="1" height="700" fill="#f2b45a" opacity=".05"/><rect x="1232" y="0" width="2" height="700" fill="#000" opacity=".22"/><rect x="1234" y="0" width="1" height="700" fill="#f2b45a" opacity=".05"/><rect x="1276" y="0" width="2" height="700" fill="#000" opacity=".22"/><rect x="1278" y="0" width="1" height="700" fill="#f2b45a" opacity=".05"/><rect x="1320" y="0" width="2" height="700" fill="#000" opacity=".22"/><rect x="1322" y="0" width="1" height="700" fill="#f2b45a" opacity=".05"/><rect x="1364" y="0" width="2" height="700" fill="#000" opacity=".22"/><rect x="1366" y="0" width="1" height="700" fill="#f2b45a" opacity=".05"/><rect x="1408" y="0" width="2" height="700" fill="#000" opacity=".22"/><rect x="1410" y="0" width="1" height="700" fill="#f2b45a" opacity=".05"/><rect x="1452" y="0" width="2" height="700" fill="#000" opacity=".22"/><rect x="1454" y="0" width="1" height="700" fill="#f2b45a" opacity=".05"/><rect x="1496" y="0" width="2" height="700" fill="#000" opacity=".22"/><rect x="1498" y="0" width="1" height="700" fill="#f2b45a" opacity=".05"/><rect x="1540" y="0" width="2" height="700" fill="#000" opacity=".22"/><rect x="1542" y="0" width="1" height="700" fill="#f2b45a" opacity=".05"/><rect x="1584" y="0" width="2" height="700" fill="#000" opacity=".22"/><rect x="1586" y="0" width="1" height="700" fill="#f2b45a" opacity=".05"/>

<!-- window onto a rainy night -->
<rect x="996" y="136" width="488" height="428" rx="6" fill="#3a2314"/>
<rect x="1010" y="150" width="460" height="400" fill="url(#night)"/>
<g clip-path="url(#win)">
  <rect x="990" y="460" width="60" height="90" fill="#0f1424"/><rect x="996" y="470" width="6" height="8" fill="#ffd27a" opacity="0.65"/><rect x="1010" y="470" width="6" height="8" fill="#ffd27a" opacity="0.58"/><rect x="1024" y="470" width="6" height="8" fill="#ffd27a" opacity="0.41"/><rect x="1024" y="488" width="6" height="8" fill="#ffd27a" opacity="0.55"/><rect x="996" y="506" width="6" height="8" fill="#ffd27a" opacity="0.61"/><rect x="1024" y="506" width="6" height="8" fill="#ffd27a" opacity="0.81"/><rect x="1038" y="506" width="6" height="8" fill="#ffd27a" opacity="0.86"/><rect x="996" y="524" width="6" height="8" fill="#ffd27a" opacity="0.88"/><rect x="1024" y="524" width="6" height="8" fill="#ffd27a" opacity="0.70"/><rect x="1038" y="524" width="6" height="8" fill="#ffd27a" opacity="0.85"/><rect x="1052" y="410" width="48" height="140" fill="#0f1424"/><rect x="1058" y="456" width="6" height="8" fill="#ffd27a" opacity="0.87"/><rect x="1072" y="474" width="6" height="8" fill="#ffd27a" opacity="0.52"/><rect x="1058" y="492" width="6" height="8" fill="#ffd27a" opacity="0.61"/><rect x="1072" y="492" width="6" height="8" fill="#ffd27a" opacity="0.79"/><rect x="1058" y="528" width="6" height="8" fill="#ffd27a" opacity="0.89"/><rect x="1086" y="528" width="6" height="8" fill="#ffd27a" opacity="0.65"/><rect x="1102" y="480" width="70" height="70" fill="#0f1424"/><rect x="1136" y="490" width="6" height="8" fill="#ffd27a" opacity="0.49"/><rect x="1122" y="508" width="6" height="8" fill="#ffd27a" opacity="0.68"/><rect x="1150" y="508" width="6" height="8" fill="#ffd27a" opacity="0.44"/><rect x="1174" y="380" width="56" height="170" fill="#0f1424"/><rect x="1180" y="408" width="6" height="8" fill="#ffd27a" opacity="0.79"/><rect x="1194" y="408" width="6" height="8" fill="#ffd27a" opacity="0.62"/><rect x="1208" y="408" width="6" height="8" fill="#ffd27a" opacity="0.88"/><rect x="1180" y="426" width="6" height="8" fill="#ffd27a" opacity="0.73"/><rect x="1194" y="426" width="6" height="8" fill="#ffd27a" opacity="0.57"/><rect x="1208" y="444" width="6" height="8" fill="#ffd27a" opacity="0.76"/><rect x="1180" y="462" width="6" height="8" fill="#ffd27a" opacity="0.72"/><rect x="1194" y="462" width="6" height="8" fill="#ffd27a" opacity="0.84"/><rect x="1208" y="462" width="6" height="8" fill="#ffd27a" opacity="0.89"/><rect x="1208" y="480" width="6" height="8" fill="#ffd27a" opacity="0.89"/><rect x="1180" y="516" width="6" height="8" fill="#ffd27a" opacity="0.75"/><rect x="1194" y="516" width="6" height="8" fill="#ffd27a" opacity="0.88"/><rect x="1208" y="516" width="6" height="8" fill="#ffd27a" opacity="0.50"/><rect x="1194" y="534" width="6" height="8" fill="#ffd27a" opacity="0.45"/><rect x="1208" y="534" width="6" height="8" fill="#ffd27a" opacity="0.80"/><rect x="1232" y="440" width="64" height="110" fill="#0f1424"/><rect x="1238" y="450" width="6" height="8" fill="#ffd27a" opacity="0.76"/><rect x="1280" y="450" width="6" height="8" fill="#ffd27a" opacity="0.68"/><rect x="1238" y="468" width="6" height="8" fill="#ffd27a" opacity="0.54"/><rect x="1252" y="468" width="6" height="8" fill="#ffd27a" opacity="0.62"/><rect x="1238" y="486" width="6" height="8" fill="#ffd27a" opacity="0.52"/><rect x="1252" y="486" width="6" height="8" fill="#ffd27a" opacity="0.81"/><rect x="1280" y="486" width="6" height="8" fill="#ffd27a" opacity="0.84"/><rect x="1266" y="504" width="6" height="8" fill="#ffd27a" opacity="0.40"/><rect x="1266" y="522" width="6" height="8" fill="#ffd27a" opacity="0.85"/><rect x="1298" y="360" width="50" height="190" fill="#0f1424"/><rect x="1318" y="370" width="6" height="8" fill="#ffd27a" opacity="0.75"/><rect x="1318" y="388" width="6" height="8" fill="#ffd27a" opacity="0.41"/><rect x="1332" y="388" width="6" height="8" fill="#ffd27a" opacity="0.70"/><rect x="1304" y="406" width="6" height="8" fill="#ffd27a" opacity="0.46"/><rect x="1332" y="406" width="6" height="8" fill="#ffd27a" opacity="0.88"/><rect x="1318" y="424" width="6" height="8" fill="#ffd27a" opacity="0.79"/><rect x="1332" y="424" width="6" height="8" fill="#ffd27a" opacity="0.77"/><rect x="1304" y="442" width="6" height="8" fill="#ffd27a" opacity="0.45"/><rect x="1332" y="442" width="6" height="8" fill="#ffd27a" opacity="0.51"/><rect x="1304" y="460" width="6" height="8" fill="#ffd27a" opacity="0.53"/><rect x="1332" y="460" width="6" height="8" fill="#ffd27a" opacity="0.71"/><rect x="1304" y="478" width="6" height="8" fill="#ffd27a" opacity="0.52"/><rect x="1318" y="478" width="6" height="8" fill="#ffd27a" opacity="0.43"/><rect x="1332" y="478" width="6" height="8" fill="#ffd27a" opacity="0.60"/><rect x="1304" y="496" width="6" height="8" fill="#ffd27a" opacity="0.73"/><rect x="1318" y="496" width="6" height="8" fill="#ffd27a" opacity="0.45"/><rect x="1332" y="496" width="6" height="8" fill="#ffd27a" opacity="0.65"/><rect x="1304" y="514" width="6" height="8" fill="#ffd27a" opacity="0.61"/><rect x="1318" y="514" width="6" height="8" fill="#ffd27a" opacity="0.80"/><rect x="1332" y="514" width="6" height="8" fill="#ffd27a" opacity="0.85"/><rect x="1304" y="532" width="6" height="8" fill="#ffd27a" opacity="0.50"/><rect x="1318" y="532" width="6" height="8" fill="#ffd27a" opacity="0.48"/><rect x="1350" y="450" width="66" height="100" fill="#0f1424"/><rect x="1356" y="460" width="6" height="8" fill="#ffd27a" opacity="0.88"/><rect x="1356" y="478" width="6" height="8" fill="#ffd27a" opacity="0.83"/><rect x="1370" y="478" width="6" height="8" fill="#ffd27a" opacity="0.54"/><rect x="1370" y="496" width="6" height="8" fill="#ffd27a" opacity="0.47"/><rect x="1356" y="532" width="6" height="8" fill="#ffd27a" opacity="0.63"/><rect x="1370" y="532" width="6" height="8" fill="#ffd27a" opacity="0.76"/><rect x="1398" y="532" width="6" height="8" fill="#ffd27a" opacity="0.59"/><rect x="1418" y="400" width="52" height="150" fill="#0f1424"/><rect x="1424" y="410" width="6" height="8" fill="#ffd27a" opacity="0.88"/><rect x="1438" y="410" width="6" height="8" fill="#ffd27a" opacity="0.88"/><rect x="1452" y="410" width="6" height="8" fill="#ffd27a" opacity="0.70"/><rect x="1424" y="428" width="6" height="8" fill="#ffd27a" opacity="0.49"/><rect x="1452" y="428" width="6" height="8" fill="#ffd27a" opacity="0.72"/><rect x="1438" y="500" width="6" height="8" fill="#ffd27a" opacity="0.46"/><rect x="1438" y="518" width="6" height="8" fill="#ffd27a" opacity="0.83"/><rect x="1424" y="536" width="6" height="8" fill="#ffd27a" opacity="0.56"/><rect x="1452" y="536" width="6" height="8" fill="#ffd27a" opacity="0.80"/><rect x="1472" y="470" width="70" height="80" fill="#0f1424"/><rect x="1492" y="480" width="6" height="8" fill="#ffd27a" opacity="0.50"/><rect x="1506" y="480" width="6" height="8" fill="#ffd27a" opacity="0.61"/><rect x="1492" y="498" width="6" height="8" fill="#ffd27a" opacity="0.78"/><rect x="1520" y="498" width="6" height="8" fill="#ffd27a" opacity="0.81"/><rect x="1478" y="534" width="6" height="8" fill="#ffd27a" opacity="0.84"/><rect x="1492" y="534" width="6" height="8" fill="#ffd27a" opacity="0.65"/><rect x="1506" y="534" width="6" height="8" fill="#ffd27a" opacity="0.81"/><rect x="1520" y="534" width="6" height="8" fill="#ffd27a" opacity="0.78"/>
  <!-- a lit red tower in the distance -->
  <path d="M1360 550 L1376 330 L1392 550z" fill="#0f1424"/><path d="M1368 440 L1376 330 L1384 440z" fill="#d9432f"/><rect x="1374" y="300" width="4" height="34" fill="#d9432f"/>
  <circle cx="1376" cy="296" r="5" fill="#ff6a4a" class="blink"/>
  <line class="rain" x1="1016" y1="0" x2="1013" y2="18" style="animation-duration:0.87s;animation-delay:-1.29s"/><line class="rain" x1="1343" y1="0" x2="1340" y2="28" style="animation-duration:0.90s;animation-delay:-0.75s"/><line class="rain" x1="1354" y1="0" x2="1351" y2="25" style="animation-duration:1.11s;animation-delay:-0.76s"/><line class="rain" x1="1382" y1="0" x2="1379" y2="27" style="animation-duration:0.92s;animation-delay:-0.34s"/><line class="rain" x1="1329" y1="0" x2="1326" y2="22" style="animation-duration:1.11s;animation-delay:-0.08s"/><line class="rain" x1="1429" y1="0" x2="1426" y2="23" style="animation-duration:0.77s;animation-delay:-1.13s"/><line class="rain" x1="1430" y1="0" x2="1427" y2="24" style="animation-duration:1.09s;animation-delay:-0.96s"/><line class="rain" x1="1425" y1="0" x2="1422" y2="20" style="animation-duration:0.92s;animation-delay:-1.27s"/><line class="rain" x1="1391" y1="0" x2="1388" y2="19" style="animation-duration:0.79s;animation-delay:-0.47s"/><line class="rain" x1="1208" y1="0" x2="1205" y2="24" style="animation-duration:1.26s;animation-delay:-0.41s"/><line class="rain" x1="1343" y1="0" x2="1340" y2="19" style="animation-duration:0.74s;animation-delay:-1.23s"/><line class="rain" x1="1267" y1="0" x2="1264" y2="17" style="animation-duration:0.95s;animation-delay:-0.71s"/><line class="rain" x1="1423" y1="0" x2="1420" y2="20" style="animation-duration:0.92s;animation-delay:-0.08s"/><line class="rain" x1="1314" y1="0" x2="1311" y2="17" style="animation-duration:1.01s;animation-delay:-1.29s"/><line class="rain" x1="1198" y1="0" x2="1195" y2="22" style="animation-duration:0.92s;animation-delay:-0.40s"/><line class="rain" x1="1165" y1="0" x2="1162" y2="18" style="animation-duration:1.07s;animation-delay:-0.74s"/><line class="rain" x1="1422" y1="0" x2="1419" y2="25" style="animation-duration:1.22s;animation-delay:-0.64s"/><line class="rain" x1="1300" y1="0" x2="1297" y2="26" style="animation-duration:1.00s;animation-delay:-0.72s"/><line class="rain" x1="1437" y1="0" x2="1434" y2="19" style="animation-duration:1.12s;animation-delay:-0.56s"/><line class="rain" x1="1279" y1="0" x2="1276" y2="21" style="animation-duration:0.90s;animation-delay:-0.49s"/><line class="rain" x1="1372" y1="0" x2="1369" y2="29" style="animation-duration:0.77s;animation-delay:-1.23s"/><line class="rain" x1="1051" y1="0" x2="1048" y2="15" style="animation-duration:0.79s;animation-delay:-0.57s"/><line class="rain" x1="1462" y1="0" x2="1459" y2="17" style="animation-duration:1.08s;animation-delay:-0.31s"/><line class="rain" x1="1221" y1="0" x2="1218" y2="31" style="animation-duration:0.78s;animation-delay:-0.83s"/><line class="rain" x1="1412" y1="0" x2="1409" y2="30" style="animation-duration:1.23s;animation-delay:-1.25s"/><line class="rain" x1="1357" y1="0" x2="1354" y2="18" style="animation-duration:0.71s;animation-delay:-0.39s"/><line class="rain" x1="1050" y1="0" x2="1047" y2="18" style="animation-duration:1.07s;animation-delay:-0.00s"/><line class="rain" x1="1348" y1="0" x2="1345" y2="18" style="animation-duration:1.11s;animation-delay:-0.69s"/><line class="rain" x1="1411" y1="0" x2="1408" y2="30" style="animation-duration:0.92s;animation-delay:-0.33s"/><line class="rain" x1="1069" y1="0" x2="1066" y2="30" style="animation-duration:0.70s;animation-delay:-0.68s"/><line class="rain" x1="1301" y1="0" x2="1298" y2="30" style="animation-duration:0.71s;animation-delay:-1.29s"/><line class="rain" x1="1100" y1="0" x2="1097" y2="26" style="animation-duration:1.04s;animation-delay:-1.36s"/><line class="rain" x1="1135" y1="0" x2="1132" y2="24" style="animation-duration:0.83s;animation-delay:-0.31s"/><line class="rain" x1="1039" y1="0" x2="1036" y2="27" style="animation-duration:1.12s;animation-delay:-1.08s"/><line class="rain" x1="1239" y1="0" x2="1236" y2="31" style="animation-duration:0.77s;animation-delay:-0.05s"/><line class="rain" x1="1075" y1="0" x2="1072" y2="15" style="animation-duration:1.24s;animation-delay:-0.96s"/><line class="rain" x1="1412" y1="0" x2="1409" y2="31" style="animation-duration:1.30s;animation-delay:-1.21s"/><line class="rain" x1="1359" y1="0" x2="1356" y2="27" style="animation-duration:0.85s;animation-delay:-0.59s"/><line class="rain" x1="1411" y1="0" x2="1408" y2="21" style="animation-duration:0.84s;animation-delay:-0.56s"/><line class="rain" x1="1413" y1="0" x2="1410" y2="25" style="animation-duration:0.91s;animation-delay:-0.78s"/><line class="rain" x1="1345" y1="0" x2="1342" y2="22" style="animation-duration:1.14s;animation-delay:-0.47s"/><line class="rain" x1="1105" y1="0" x2="1102" y2="32" style="animation-duration:1.29s;animation-delay:-0.44s"/><line class="rain" x1="1299" y1="0" x2="1296" y2="18" style="animation-duration:1.25s;animation-delay:-1.22s"/><line class="rain" x1="1305" y1="0" x2="1302" y2="24" style="animation-duration:1.00s;animation-delay:-0.19s"/><line class="rain" x1="1362" y1="0" x2="1359" y2="17" style="animation-duration:0.99s;animation-delay:-1.32s"/><line class="rain" x1="1216" y1="0" x2="1213" y2="23" style="animation-duration:1.10s;animation-delay:-0.23s"/>
  <rect x="1010" y="150" width="460" height="400" fill="#9bb4e8" opacity=".06"/>
</g>
<rect x="1236" y="150" width="8" height="400" fill="#3a2314"/><rect x="1010" y="340" width="460" height="8" fill="#3a2314"/>
<rect x="990" y="556" width="500" height="16" rx="3" fill="#4a2e19"/>

<!-- noren curtain -->
<rect x="70" y="0" width="560" height="14" fill="#1a0f08"/>
<path d="M84 14 h124 v176 l-8 6 l-8 -6 l-8 6 l-8 -6 l-8 6 l-8 -6 l-8 6 l-8 -6 l-8 6 l-8 -6 l-8 6 l-8 -6 l-8 6 l-8 -6 l-8 6 l-4 -6z" fill="#1f3b5c"/><circle cx="146" cy="96" r="26" fill="none" stroke="#f3ebdd" stroke-width="3" opacity=".85"/><path d="M218 14 h124 v176 l-8 6 l-8 -6 l-8 6 l-8 -6 l-8 6 l-8 -6 l-8 6 l-8 -6 l-8 6 l-8 -6 l-8 6 l-8 -6 l-8 6 l-8 -6 l-8 6 l-4 -6z" fill="#1f3b5c"/><circle cx="280" cy="96" r="26" fill="none" stroke="#f3ebdd" stroke-width="3" opacity=".85"/><path d="M352 14 h124 v176 l-8 6 l-8 -6 l-8 6 l-8 -6 l-8 6 l-8 -6 l-8 6 l-8 -6 l-8 6 l-8 -6 l-8 6 l-8 -6 l-8 6 l-8 -6 l-8 6 l-4 -6z" fill="#1f3b5c"/><circle cx="414" cy="96" r="26" fill="none" stroke="#f3ebdd" stroke-width="3" opacity=".85"/><path d="M486 14 h124 v176 l-8 6 l-8 -6 l-8 6 l-8 -6 l-8 6 l-8 -6 l-8 6 l-8 -6 l-8 6 l-8 -6 l-8 6 l-8 -6 l-8 6 l-8 -6 l-8 6 l-4 -6z" fill="#1f3b5c"/><circle cx="548" cy="96" r="26" fill="none" stroke="#f3ebdd" stroke-width="3" opacity=".85"/>

<!-- hanging paper lanterns -->

  <g class="sway" style="transform-origin:760px 0px;animation-delay:-0s">
    <line x1="760" y1="0" x2="760" y2="90" stroke="#1a0f08" stroke-width="2"/>
    <circle cx="760" cy="142" r="150" fill="url(#glow)"/>
    <rect x="746" y="90" width="28" height="8" rx="2" fill="#1a0f08"/>
    <ellipse cx="760" cy="142" rx="40" ry="48" fill="url(#paper)"/>
    <path d="M733 98 Q721 142 733 186" stroke="#7a1d12" stroke-width="1" fill="none" opacity=".55"/><path d="M746.5 98 Q740.5 142 746.5 186" stroke="#7a1d12" stroke-width="1" fill="none" opacity=".55"/><path d="M760 98 Q760 142 760 186" stroke="#7a1d12" stroke-width="1" fill="none" opacity=".55"/><path d="M773.5 98 Q779.5 142 773.5 186" stroke="#7a1d12" stroke-width="1" fill="none" opacity=".55"/><path d="M787 98 Q799 142 787 186" stroke="#7a1d12" stroke-width="1" fill="none" opacity=".55"/>
    <rect x="746" y="184" width="28" height="8" rx="2" fill="#1a0f08"/>
    <line x1="760" y1="192" x2="760" y2="208" stroke="#d9432f" stroke-width="3"/>
  </g>

  <g class="sway" style="transform-origin:880px 0px;animation-delay:-2.2s">
    <line x1="880" y1="0" x2="880" y2="40" stroke="#1a0f08" stroke-width="2"/>
    <circle cx="880" cy="92" r="150" fill="url(#glow)"/>
    <rect x="866" y="40" width="28" height="8" rx="2" fill="#1a0f08"/>
    <ellipse cx="880" cy="92" rx="40" ry="48" fill="url(#paper)"/>
    <path d="M853 48 Q841 92 853 136" stroke="#7a1d12" stroke-width="1" fill="none" opacity=".55"/><path d="M866.5 48 Q860.5 92 866.5 136" stroke="#7a1d12" stroke-width="1" fill="none" opacity=".55"/><path d="M880 48 Q880 92 880 136" stroke="#7a1d12" stroke-width="1" fill="none" opacity=".55"/><path d="M893.5 48 Q899.5 92 893.5 136" stroke="#7a1d12" stroke-width="1" fill="none" opacity=".55"/><path d="M907 48 Q919 92 907 136" stroke="#7a1d12" stroke-width="1" fill="none" opacity=".55"/>
    <rect x="866" y="134" width="28" height="8" rx="2" fill="#1a0f08"/>
    <line x1="880" y1="142" x2="880" y2="158" stroke="#d9432f" stroke-width="3"/>
  </g>

  <g class="sway" style="transform-origin:700px 0px;animation-delay:-3.4s">
    <line x1="700" y1="0" x2="700" y2="160" stroke="#1a0f08" stroke-width="2"/>
    <circle cx="700" cy="212" r="150" fill="url(#glow)"/>
    <rect x="686" y="160" width="28" height="8" rx="2" fill="#1a0f08"/>
    <ellipse cx="700" cy="212" rx="40" ry="48" fill="url(#paper)"/>
    <path d="M673 168 Q661 212 673 256" stroke="#7a1d12" stroke-width="1" fill="none" opacity=".55"/><path d="M686.5 168 Q680.5 212 686.5 256" stroke="#7a1d12" stroke-width="1" fill="none" opacity=".55"/><path d="M700 168 Q700 212 700 256" stroke="#7a1d12" stroke-width="1" fill="none" opacity=".55"/><path d="M713.5 168 Q719.5 212 713.5 256" stroke="#7a1d12" stroke-width="1" fill="none" opacity=".55"/><path d="M727 168 Q739 212 727 256" stroke="#7a1d12" stroke-width="1" fill="none" opacity=".55"/>
    <rect x="686" y="254" width="28" height="8" rx="2" fill="#1a0f08"/>
    <line x1="700" y1="262" x2="700" y2="278" stroke="#d9432f" stroke-width="3"/>
  </g>

<!-- shelves of cups and tins on the left wall -->
<rect x="60" y="360" width="420" height="12" fill="#4a2e19"/><rect x="60" y="372" width="420" height="4" fill="#000" opacity=".3"/>

  <g transform="translate(100,360)">
    <path d="M0 -26 h30 v14 q0 14 -15 14 q-15 0 -15 -14z" fill="#e9dcc3"/>
    <path d="M30 -22 q12 2 8 12 q-3 5 -9 4" stroke="#e9dcc3" stroke-width="3" fill="none"/>
  </g>
  <g transform="translate(152,360)">
    <path d="M0 -26 h30 v14 q0 14 -15 14 q-15 0 -15 -14z" fill="#c8d7d2"/>
    <path d="M30 -22 q12 2 8 12 q-3 5 -9 4" stroke="#c8d7d2" stroke-width="3" fill="none"/>
  </g>
  <g transform="translate(204,360)">
    <path d="M0 -26 h30 v14 q0 14 -15 14 q-15 0 -15 -14z" fill="#e9dcc3"/>
    <path d="M30 -22 q12 2 8 12 q-3 5 -9 4" stroke="#e9dcc3" stroke-width="3" fill="none"/>
  </g>
  <g transform="translate(256,360)">
    <path d="M0 -26 h30 v14 q0 14 -15 14 q-15 0 -15 -14z" fill="#d9b18a"/>
    <path d="M30 -22 q12 2 8 12 q-3 5 -9 4" stroke="#d9b18a" stroke-width="3" fill="none"/>
  </g>
  <g transform="translate(308,360)">
    <path d="M0 -26 h30 v14 q0 14 -15 14 q-15 0 -15 -14z" fill="#c8d7d2"/>
    <path d="M30 -22 q12 2 8 12 q-3 5 -9 4" stroke="#c8d7d2" stroke-width="3" fill="none"/>
  </g>
<rect x="60" y="500" width="420" height="12" fill="#4a2e19"/><rect x="60" y="512" width="420" height="4" fill="#000" opacity=".3"/>
<g transform="translate(96,500)"><rect x="0" y="-52" width="40" height="52" rx="4" fill="#2f4a3a"/><rect x="0" y="-52" width="40" height="8" rx="3" fill="#1a0f08"/><rect x="8" y="-34" width="24" height="16" rx="2" fill="#f3ebdd" opacity=".75"/></g><g transform="translate(158,500)"><rect x="0" y="-52" width="40" height="52" rx="4" fill="#7a2a1c"/><rect x="0" y="-52" width="40" height="8" rx="3" fill="#1a0f08"/><rect x="8" y="-34" width="24" height="16" rx="2" fill="#f3ebdd" opacity=".75"/></g><g transform="translate(220,500)"><rect x="0" y="-52" width="40" height="52" rx="4" fill="#c9a14a"/><rect x="0" y="-52" width="40" height="8" rx="3" fill="#1a0f08"/><rect x="8" y="-34" width="24" height="16" rx="2" fill="#f3ebdd" opacity=".75"/></g><g transform="translate(282,500)"><rect x="0" y="-52" width="40" height="52" rx="4" fill="#2f4a3a"/><rect x="0" y="-52" width="40" height="8" rx="3" fill="#1a0f08"/><rect x="8" y="-34" width="24" height="16" rx="2" fill="#f3ebdd" opacity=".75"/></g><g transform="translate(344,500)"><rect x="0" y="-52" width="40" height="52" rx="4" fill="#3b3a52"/><rect x="0" y="-52" width="40" height="8" rx="3" fill="#1a0f08"/><rect x="8" y="-34" width="24" height="16" rx="2" fill="#f3ebdd" opacity=".75"/></g><g transform="translate(406,500)"><rect x="0" y="-52" width="40" height="52" rx="4" fill="#7a2a1c"/><rect x="0" y="-52" width="40" height="8" rx="3" fill="#1a0f08"/><rect x="8" y="-34" width="24" height="16" rx="2" fill="#f3ebdd" opacity=".75"/></g>

<!-- the counter -->
<rect x="0" y="700" width="1600" height="200" fill="url(#counter)"/>
<rect x="0" y="700" width="1600" height="6" fill="#8a5a30" opacity=".7"/>
<!-- a siphon coffee set, the kissaten classic -->
<g>
  <rect x="1160" y="668" width="136" height="12" rx="3" fill="#1a0f08"/>
  <path d="M1196 668 q-30 -4 -26 -34 q4 -26 30 -26 q26 0 30 26 q4 30 -26 34z" fill="#bcd4ff" opacity=".22" stroke="#e9dcc3" stroke-width="2"/>
  <path d="M1212 600 v-70 h24 v70" fill="none" stroke="#e9dcc3" stroke-width="2" opacity=".7"/>
  <ellipse cx="1224" cy="500" rx="34" ry="46" fill="#bcd4ff" opacity=".18" stroke="#e9dcc3" stroke-width="2"/>
  <path d="M1200 520 q24 20 48 0 v-12 q-24 16 -48 0z" fill="#5a2c12" opacity=".85"/>
  <path class="flame" d="M1228 656 q-8 -14 0 -26 q8 12 0 26z" fill="#6fb6ff"/><path class="flame" d="M1228 656 q-3 -8 0 -15 q3 7 0 15z" fill="#fff"/>
  <path class="steam" d="M1224 470 q-8 -10 0 -20 q8 -10 0 -20" style="animation-delay:0s"/><path class="steam" d="M1236 466 q8 -10 0 -20 q-8 -10 0 -20" style="animation-delay:1.4s"/>
</g>
<!-- a cup with steam -->
<g transform="translate(1420,690)">
  <ellipse cx="0" cy="14" rx="48" ry="8" fill="#000" opacity=".35"/>
  <path d="M-34 -38 h68 v22 q0 40 -34 40 q-34 0 -34 -40z" fill="#e9dcc3"/><path d="M34 -30 q22 2 18 22 q-4 12 -18 10" stroke="#e9dcc3" stroke-width="6" fill="none"/>
  <ellipse cx="0" cy="-38" rx="34" ry="8" fill="#5a2c12"/>
  <path class="steam" d="M-10 -50 q-9 -12 0 -24 q9 -12 0 -24" style="animation-delay:.4s"/><path class="steam" d="M10 -50 q9 -12 0 -24 q-9 -12 0 -24" style="animation-delay:2s"/>
</g>

<rect width="1600" height="900" fill="url(#vig)"/>
</svg>
